<svg width="387" height="469" viewBox="0 0 387 469" fill="none" xmlns="http://www.w3.org/2000/svg">
<rect width="387" height="469" rx="40" fill="#F5EEFF"/>
<path fill-rule="evenodd" clip-rule="evenodd" d="M266.807 135.249C265.728 136.328 265.636 138.043 266.552 139.264C273.775 148.894 279.136 160.001 282.101 172.05C282.422 173.356 283.55 174.296 284.876 174.519C291.291 175.594 296.688 179.594 299.588 185.069C300.16 186.149 301.241 186.9 302.463 186.9H317.009C318.728 186.9 320.099 185.457 319.965 183.743C317.92 157.549 307.897 133.596 292.324 114.311C291.223 112.948 289.188 112.868 287.949 114.107L266.807 135.249ZM261.125 186.9C261.871 186.9 262.536 186.444 262.859 185.771C265.126 181.047 269.215 177.331 274.239 175.493C275.821 174.914 276.886 173.302 276.451 171.675C273.718 161.465 269.15 152.006 263.12 143.674C262.065 142.216 259.964 142.093 258.692 143.365L248.966 153.09C247.921 154.135 247.799 155.781 248.623 157.008C254.187 165.292 257.931 174.9 259.281 185.261C259.403 186.191 260.187 186.9 261.125 186.9V186.9ZM245.25 161.736C244.266 160.159 242.081 159.976 240.766 161.29L234.046 168.01C233.058 168.998 232.893 170.533 233.57 171.755C235.726 175.642 237.327 179.879 238.267 184.36C238.572 185.812 239.822 186.9 241.306 186.9H250.677C252.469 186.9 253.867 185.337 253.565 183.571C252.213 175.668 249.337 168.285 245.25 161.736Z" fill="url(#paint0_linear_51_1986)"/>
<path fill-rule="evenodd" clip-rule="evenodd" d="M272.891 244.495C271.556 243.58 271.192 241.774 272.018 240.383C276.374 233.047 279.73 225.047 281.898 216.572C282.232 215.27 283.367 214.34 284.694 214.13C291.309 213.082 296.862 208.928 299.747 203.243C300.31 202.134 301.405 201.356 302.649 201.356H316.944C318.671 201.356 320.044 202.812 319.899 204.533C318.176 224.888 311.635 243.869 301.418 260.333C300.531 261.762 298.63 262.135 297.243 261.185L272.891 244.495ZM261.003 201.356C261.734 201.356 262.382 201.81 262.685 202.476C264.888 207.321 268.991 211.153 274.066 213.062C275.643 213.655 276.694 215.277 276.243 216.901C274.252 224.075 271.352 230.872 267.674 237.158C266.817 238.624 264.894 239.015 263.494 238.055L252.304 230.386C250.982 229.48 250.612 227.697 251.397 226.299C255.377 219.211 258.091 211.316 259.233 202.921C259.354 202.032 260.106 201.356 261.003 201.356V201.356ZM242.878 223.926C244.294 224.896 246.239 224.486 247.06 222.98C250.119 217.365 252.319 211.215 253.484 204.706C253.802 202.934 252.401 201.356 250.6 201.356H241.131C239.667 201.356 238.428 202.415 238.103 203.842C237.244 207.615 235.916 211.209 234.182 214.558C233.452 215.967 233.827 217.723 235.135 218.619L242.878 223.926Z" fill="url(#paint1_linear_51_1986)"/>
<path fill-rule="evenodd" clip-rule="evenodd" d="M250.941 268.445C250.001 267.132 250.272 265.315 251.518 264.289C256.593 260.106 261.209 255.384 265.276 250.212C266.276 248.941 268.091 248.63 269.425 249.544L293.752 266.216C295.144 267.17 295.478 269.088 294.453 270.431C288.031 278.841 280.577 286.422 272.281 292.985C270.96 294.031 269.041 293.734 268.06 292.364L250.941 268.445ZM248.553 259.76C247.247 260.852 245.3 260.565 244.309 259.18L236.413 248.148C235.483 246.848 235.74 245.052 236.949 244.005C239.748 241.579 242.343 238.923 244.702 236.065C245.723 234.829 247.518 234.531 248.84 235.437L260.028 243.104C261.43 244.064 261.758 246 260.699 247.328C257.079 251.871 253.008 256.037 248.553 259.76ZM234.024 239.386C232.738 240.53 230.762 240.253 229.761 238.854L224.233 231.131C223.313 229.845 223.556 228.073 224.715 226.998C225.686 226.097 226.617 225.155 227.505 224.174C228.56 223.009 230.314 222.74 231.609 223.628L239.415 228.977C240.83 229.947 241.15 231.91 240.041 233.219C238.183 235.414 236.171 237.475 234.024 239.386Z" fill="url(#paint2_linear_51_1986)"/>
<path fill-rule="evenodd" clip-rule="evenodd" d="M245.981 272.039C245.037 270.72 243.22 270.395 241.845 271.254C227.849 280.007 211.305 285.065 193.581 285.065C181.659 285.065 170.271 282.777 159.834 278.615C158.336 278.018 156.615 278.652 155.915 280.104L143.264 306.333C142.531 307.853 143.193 309.681 144.748 310.337C159.848 316.704 176.441 320.223 193.857 320.223C219.077 320.223 242.574 312.842 262.304 300.123C263.721 299.209 264.059 297.297 263.078 295.926L245.981 272.039ZM239.351 262.776C240.338 264.155 239.99 266.081 238.547 266.971C225.473 275.035 210.07 279.687 193.581 279.687C182.579 279.687 172.062 277.616 162.397 273.843C160.809 273.223 160.125 271.375 160.865 269.84L166.763 257.612C167.456 256.175 169.15 255.539 170.647 256.091C177.793 258.728 185.519 260.168 193.581 260.168C205.912 260.168 217.457 256.799 227.345 250.932C228.727 250.111 230.523 250.442 231.459 251.75L239.351 262.776ZM224.81 242.46C225.806 243.851 225.441 245.799 223.959 246.654C215.019 251.814 204.645 254.767 193.581 254.767C186.476 254.767 179.655 253.549 173.317 251.312C171.69 250.737 170.981 248.867 171.73 247.313L175.998 238.464C176.681 237.048 178.337 236.41 179.831 236.895C184.248 238.329 188.962 239.104 193.857 239.104C201.566 239.104 208.825 237.183 215.182 233.792C216.573 233.05 218.321 233.394 219.238 234.675L224.81 242.46Z" fill="url(#paint3_linear_51_1986)"/>
<path fill-rule="evenodd" clip-rule="evenodd" d="M120.848 271.59C121.85 270.588 123.406 270.454 124.699 271.034C126.682 271.924 128.888 272.42 131.212 272.42C134.287 272.42 137.156 271.551 139.576 270.05C140.732 269.332 142.216 269.24 143.351 269.991C145.213 271.223 147.123 272.388 149.077 273.483C150.493 274.276 151.08 276.029 150.375 277.49L137.739 303.69C137.008 305.207 135.17 305.828 133.69 305.026C124.81 300.215 116.571 294.373 109.133 287.66C107.88 286.529 107.856 284.582 109.05 283.389L120.848 271.59ZM145.886 246.552C144.854 247.585 144.746 249.199 145.38 250.514C146.337 252.501 146.873 254.722 146.873 257.066C146.873 258.807 146.577 260.481 146.032 262.042C145.519 263.511 145.874 265.226 147.183 266.069C148.517 266.928 149.877 267.752 151.261 268.539C152.733 269.375 154.588 268.756 155.324 267.231L161.214 255.019C161.913 253.569 161.339 251.831 159.953 251.013C156.949 249.241 154.098 247.238 151.423 245.03C150.193 244.014 148.383 244.055 147.255 245.184L145.886 246.552ZM155.339 237.1C154.119 238.319 154.172 240.319 155.517 241.398C157.601 243.07 159.798 244.608 162.093 245.999C163.554 246.884 165.434 246.269 166.176 244.73L170.452 235.864C171.141 234.436 170.594 232.729 169.263 231.869C168.301 231.247 167.363 230.59 166.453 229.899C165.203 228.95 163.431 229.008 162.321 230.118L155.339 237.1Z" fill="url(#paint4_linear_51_1986)"/>
<path fill-rule="evenodd" clip-rule="evenodd" d="M116.956 263.432C117.564 264.74 117.446 266.329 116.426 267.349L104.694 279.082C103.504 280.271 101.568 280.253 100.433 279.011C93.8329 271.785 88.0598 263.79 83.2636 255.177C82.4413 253.701 83.0491 251.849 84.5671 251.106L110.67 238.326C112.117 237.617 113.862 238.182 114.67 239.576C115.738 241.417 116.868 243.216 118.057 244.972C118.846 246.136 118.737 247.675 117.974 248.855C116.439 251.23 115.55 254.045 115.55 257.065C115.55 259.336 116.053 261.493 116.956 263.432ZM137.534 243.013C138.818 243.569 140.35 243.425 141.34 242.435L142.869 240.906C144.008 239.767 144.038 237.937 142.997 236.707C140.829 234.148 138.852 231.422 137.088 228.551C136.253 227.192 134.528 226.645 133.095 227.347L120.904 233.315C119.373 234.065 118.769 235.941 119.635 237.41C120.439 238.774 121.28 240.113 122.155 241.427C122.995 242.687 124.653 243.038 126.087 242.551C127.693 242.006 129.417 241.711 131.211 241.711C133.461 241.711 135.6 242.176 137.534 243.013ZM143.363 222.319C141.814 223.078 141.217 224.987 142.14 226.443C143.52 228.621 145.035 230.705 146.673 232.684C147.761 234 149.737 234.038 150.945 232.83L157.922 225.853C159.045 224.73 159.09 222.932 158.11 221.682C157.453 220.843 156.825 219.98 156.227 219.094C155.35 217.796 153.658 217.279 152.251 217.968L143.363 222.319Z" fill="#02C8A1"/>
<path fill-rule="evenodd" clip-rule="evenodd" d="M99.9557 201.356C101.519 201.356 102.815 202.557 102.988 204.111C103.955 212.8 106.144 221.121 109.379 228.897C110.003 230.395 109.382 232.137 107.924 232.851L81.8295 245.627C80.32 246.366 78.4946 245.722 77.8237 244.181C72.4592 231.861 68.9994 218.521 67.816 204.532C67.6704 202.811 69.0441 201.356 70.771 201.356H99.9557ZM108.462 204.607C108.245 202.863 109.631 201.356 111.389 201.356H125.051C126.579 201.356 127.856 202.506 128.087 204.016C128.827 208.853 130.09 213.518 131.817 217.95C132.402 219.451 131.779 221.172 130.333 221.88L118.154 227.842C116.634 228.587 114.794 227.928 114.153 226.361C111.35 219.509 109.408 212.212 108.462 204.607ZM133.677 204.706C133.359 202.934 134.76 201.356 136.561 201.356H146.583C148.047 201.356 149.286 202.415 149.611 203.842C149.982 205.474 150.441 207.071 150.983 208.63C151.505 210.131 150.881 211.82 149.454 212.519L140.593 216.857C139.059 217.608 137.201 216.93 136.599 215.331C135.318 211.924 134.333 208.372 133.677 204.706Z" fill="#02C8A1"/>
<path fill-rule="evenodd" clip-rule="evenodd" d="M114.317 143.243C115.653 144.159 116.016 145.966 115.188 147.358C108.655 158.337 104.362 170.805 102.941 184.131C102.775 185.691 101.476 186.9 99.9077 186.9H70.7058C68.9863 186.9 67.6154 185.457 67.7492 183.742C69.3483 163.264 75.824 144.154 86.0159 127.575C86.8992 126.138 88.8058 125.759 90.1971 126.713L114.317 143.243ZM119.534 150.577C120.393 149.113 122.313 148.724 123.713 149.683L134.901 157.351C136.225 158.258 136.594 160.043 135.807 161.441C131.911 168.359 129.221 176.047 128.024 184.22C127.801 185.739 126.521 186.9 124.986 186.9H111.336C109.584 186.9 108.2 185.404 108.407 183.664C109.83 171.707 113.712 160.504 119.534 150.577ZM140.147 164.753C140.969 163.249 142.913 162.841 144.327 163.81L152.34 169.302C153.638 170.191 154.018 171.927 153.31 173.331C151.572 176.779 150.262 180.478 149.447 184.36C149.142 185.812 147.892 186.9 146.408 186.9H136.484C134.692 186.9 133.294 185.337 133.596 183.571C134.745 176.859 136.992 170.522 140.147 164.753Z" fill="url(#paint5_linear_51_1986)"/>
<path fill-rule="evenodd" clip-rule="evenodd" d="M155.755 164.217C157.062 165.113 158.832 164.831 159.882 163.645C160.814 162.594 161.794 161.586 162.818 160.625C163.966 159.548 164.203 157.785 163.287 156.505L157.699 148.698C156.702 147.305 154.738 147.023 153.451 148.153C151.209 150.121 149.114 152.25 147.182 154.524C146.07 155.833 146.389 157.798 147.806 158.769L155.755 164.217ZM150.501 143.563C151.72 142.518 151.984 140.714 151.05 139.408L148.43 135.747C147.617 134.612 146.134 134.222 144.772 134.53C143.77 134.756 142.725 134.876 141.653 134.876C139.594 134.876 137.64 134.435 135.885 133.644C134.582 133.058 133.005 133.156 132.01 134.182C130.083 136.168 128.25 138.248 126.521 140.414C125.46 141.742 125.788 143.679 127.19 144.641L138.379 152.309C139.7 153.214 141.493 152.918 142.514 151.684C144.94 148.754 147.613 146.036 150.501 143.563ZM129.979 114.043C130.761 112.839 130.903 111.26 130.068 110.093L119.447 95.2539C118.465 93.8818 116.542 93.5866 115.221 94.6364C106.871 101.271 99.3795 108.94 92.9387 117.447C91.9223 118.79 92.2588 120.701 93.6477 121.653L117.793 138.2C119.126 139.114 120.939 138.804 121.939 137.535C123.915 135.028 126.019 132.627 128.242 130.342C129.241 129.316 129.385 127.745 128.836 126.422C128.183 124.846 127.822 123.123 127.822 121.317C127.822 118.64 128.614 116.145 129.979 114.043Z" fill="url(#paint6_linear_51_1986)"/>
<path fill-rule="evenodd" clip-rule="evenodd" d="M163.565 140.954C162.07 141.803 161.697 143.76 162.698 145.158L168.242 152.905C169.163 154.192 170.921 154.532 172.314 153.779C175.865 151.86 179.7 150.401 183.741 149.481C185.169 149.156 186.228 147.916 186.228 146.453V136.872C186.228 135.073 184.653 133.672 182.882 133.987C175.969 135.212 169.46 137.605 163.565 140.954ZM183.563 128.4C185.076 128.171 186.228 126.894 186.228 125.365V111.705C186.228 109.948 184.724 108.562 182.98 108.777C173.852 109.902 165.168 112.461 157.16 116.222C155.833 116.845 155.236 118.361 155.399 119.818C155.454 120.31 155.483 120.81 155.483 121.317C155.483 123.89 154.752 126.295 153.483 128.345C152.742 129.541 152.623 131.083 153.442 132.226L156.045 135.864C156.977 137.166 158.763 137.5 160.144 136.691C167.218 132.548 175.13 129.679 183.563 128.4ZM183.47 103.305C185.025 103.133 186.228 101.837 186.228 100.272V70.6406C186.228 68.9137 184.772 67.5401 183.051 67.6856C161.838 69.4803 142.116 76.5098 125.183 87.4775C123.77 88.3924 123.434 90.3019 124.414 91.6704L135.246 106.805C136.042 107.916 137.484 108.315 138.823 108.042C139.737 107.856 140.683 107.758 141.652 107.758C145.058 107.758 148.176 108.965 150.586 110.966C151.654 111.853 153.139 112.178 154.392 111.58C163.371 107.298 173.162 104.442 183.47 103.305Z" fill="url(#paint7_linear_51_1986)"/>
<path fill-rule="evenodd" clip-rule="evenodd" d="M200.684 146.278C200.684 147.762 201.772 149.012 203.224 149.317C208.612 150.448 213.647 152.534 218.146 155.39C219.386 156.176 221.017 156.051 222.055 155.013L228.695 148.373C229.968 147.1 229.844 144.996 228.368 143.965C221.221 138.978 212.953 135.485 204.018 133.941C202.251 133.636 200.684 135.035 200.684 136.829V146.278ZM200.684 125.328C200.684 126.861 201.843 128.141 203.36 128.365C214.267 129.979 224.309 134.25 232.804 140.5C234.036 141.406 235.752 141.316 236.833 140.236L246.492 130.577C247.735 129.333 247.65 127.289 246.264 126.208C234.287 116.875 219.77 110.651 203.924 108.746C202.183 108.537 200.684 109.921 200.684 111.675V125.328ZM200.684 100.246C200.684 101.813 201.893 103.111 203.451 103.279C221.135 105.183 237.305 112.144 250.484 122.688C251.705 123.665 253.471 123.598 254.576 122.492L275.643 101.426C276.863 100.205 276.807 98.2068 275.489 97.0925C255.837 80.4747 231.048 69.7432 203.842 67.6189C202.128 67.485 200.684 68.856 200.684 70.5755V100.246Z" fill="url(#paint8_linear_51_1986)"/>
<path opacity="0.9" d="M303.823 90.0324L299.516 85.7256L191.118 194.124L195.425 198.431L303.823 90.0324Z" fill="#3B2D4A"/>
<circle cx="300.456" cy="87.4903" r="14.4567" fill="#3B2D4A"/>
<circle cx="194.038" cy="193.908" r="29.315" fill="#3B2D4A"/>
<circle cx="281.463" cy="194.548" r="13.8544" fill="#3B2D4A"/>
<circle cx="131.259" cy="257.248" r="10.5945" fill="#3B2D4A"/>
<circle cx="141.695" cy="121.478" r="9.35577" fill="#3B2D4A"/>
<path d="M68.0143 374.955C68.0143 370.546 68.9934 366.695 70.9516 363.403C72.9657 360.054 75.7071 357.459 79.1759 355.618C82.7006 353.776 86.7008 352.855 91.1767 352.855C95.6525 352.855 99.6248 353.776 103.094 355.618C106.562 357.459 109.276 360.054 111.234 363.403C113.248 366.695 114.255 370.546 114.255 374.955C114.255 379.364 113.248 383.214 111.234 386.507C109.276 389.8 106.562 392.367 103.094 394.209C99.6248 396.05 95.6525 396.971 91.1767 396.971C86.7008 396.971 82.7006 396.05 79.1759 394.209C75.7071 392.367 72.9657 389.8 70.9516 386.507C68.9934 383.214 68.0143 379.364 68.0143 374.955ZM81.0222 374.871C81.0222 376.992 81.4418 378.861 82.281 380.48C83.1761 382.043 84.379 383.27 85.8896 384.163C87.4002 385 89.1625 385.419 91.1767 385.419C93.1908 385.419 94.9531 385 96.4637 384.163C97.9743 383.27 99.1492 382.043 99.9884 380.48C100.828 378.861 101.247 376.992 101.247 374.871C101.247 372.751 100.828 370.909 99.9884 369.346C99.1492 367.784 97.9743 366.584 96.4637 365.747C94.9531 364.854 93.1908 364.407 91.1767 364.407C89.1625 364.407 87.4002 364.854 85.8896 365.747C84.379 366.584 83.1761 367.784 82.281 369.346C81.4418 370.909 81.0222 372.751 81.0222 374.871ZM134.42 397.055C130 397.055 126.475 395.855 123.846 393.455C121.272 391 119.985 387.735 119.985 383.661C119.985 379.81 121.3 376.741 123.93 374.453C126.615 372.165 130.475 370.825 135.511 370.435L147.26 369.514V368.844C147.26 367.449 146.98 366.305 146.421 365.412C145.861 364.463 145.05 363.765 143.987 363.319C142.98 362.817 141.693 362.566 140.126 362.566C137.385 362.566 135.287 363.068 133.832 364.072C132.434 365.077 131.734 366.528 131.734 368.425H120.992C120.992 365.244 121.804 362.482 123.426 360.138C125.048 357.794 127.342 355.98 130.308 354.697C133.329 353.413 136.825 352.771 140.798 352.771C144.882 352.771 148.323 353.497 151.12 354.948C153.973 356.399 156.127 358.52 157.582 361.31C159.093 364.1 159.848 367.505 159.848 371.523V395.967H148.435L147.595 390.442C146.924 392.339 145.33 393.93 142.812 395.213C140.35 396.441 137.553 397.055 134.42 397.055ZM138.951 387.512C141.413 387.512 143.427 386.926 144.994 385.754C146.56 384.526 147.344 382.712 147.344 380.312V378.052L140.798 378.638C138 378.861 136.014 379.336 134.839 380.061C133.72 380.731 133.161 381.736 133.161 383.075C133.161 384.582 133.636 385.698 134.588 386.423C135.539 387.149 136.993 387.512 138.951 387.512ZM166.096 382.74H178.349C178.461 384.191 179.048 385.335 180.111 386.172C181.174 387.009 182.685 387.428 184.643 387.428C186.657 387.428 188.14 387.093 189.091 386.423C190.042 385.754 190.518 384.889 190.518 383.828C190.518 383.214 190.266 382.601 189.762 381.987C189.315 381.373 188.308 380.898 186.741 380.564L179.02 378.889C175.16 378.052 172.279 376.713 170.376 374.871C168.474 372.974 167.523 370.183 167.523 366.5C167.523 363.598 168.278 361.143 169.789 359.133C171.355 357.069 173.454 355.506 176.083 354.446C178.713 353.329 181.706 352.771 185.063 352.771C188.308 352.771 191.161 353.357 193.623 354.529C196.14 355.701 198.098 357.348 199.497 359.468C200.896 361.589 201.595 364.072 201.595 366.919H189.343C189.343 365.468 188.923 364.324 188.084 363.486C187.245 362.594 186.042 362.147 184.475 362.147C183.021 362.147 181.846 362.51 180.951 363.235C180.111 363.905 179.692 364.798 179.692 365.914C179.692 367.7 181.202 368.928 184.223 369.597L192.028 371.272C195.497 371.997 198.126 373.253 199.917 375.039C201.763 376.769 202.686 379.308 202.686 382.656C202.686 385.614 201.903 388.181 200.336 390.358C198.77 392.534 196.588 394.209 193.791 395.381C190.993 396.497 187.776 397.055 184.14 397.055C178.601 397.055 174.209 395.743 170.964 393.12C167.719 390.442 166.096 386.982 166.096 382.74ZM226.559 396.971C222.643 396.971 219.286 396.05 216.488 394.209C213.691 392.367 211.537 389.856 210.026 386.675C208.516 383.438 207.761 379.81 207.761 375.792C207.761 371.718 208.516 368.063 210.026 364.826C211.537 361.589 213.691 359.05 216.488 357.208C219.342 355.311 222.783 354.362 226.811 354.362C230.168 354.362 233.133 355.087 235.706 356.538C238.336 357.989 240.35 360.194 241.749 363.152V334.941H247.539V395.967H242.504L241.917 387.679C240.462 390.804 238.392 393.148 235.706 394.711C233.021 396.218 229.972 396.971 226.559 396.971ZM227.566 391.697C230.587 391.697 233.133 391.028 235.203 389.688C237.273 388.293 238.867 386.396 239.986 383.996C241.105 381.54 241.665 378.75 241.665 375.625C241.665 372.499 241.105 369.737 239.986 367.337C238.867 364.937 237.273 363.04 235.203 361.645C233.133 360.25 230.587 359.552 227.566 359.552C224.657 359.552 222.139 360.25 220.013 361.645C217.943 363.04 216.349 364.937 215.23 367.337C214.167 369.737 213.635 372.499 213.635 375.625C213.635 378.75 214.167 381.54 215.23 383.996C216.349 386.396 217.943 388.293 220.013 389.688C222.139 391.028 224.657 391.697 227.566 391.697ZM259.623 395.967V355.45H265.413V395.967H259.623ZM262.476 344.316C261.301 344.316 260.294 343.898 259.455 343.061C258.616 342.224 258.196 341.219 258.196 340.047C258.196 338.875 258.616 337.871 259.455 337.034C260.294 336.141 261.301 335.694 262.476 335.694C263.651 335.694 264.658 336.141 265.497 337.034C266.393 337.871 266.84 338.875 266.84 340.047C266.84 341.219 266.393 342.224 265.497 343.061C264.658 343.898 263.651 344.316 262.476 344.316ZM272.957 355.45H299.812V360.305H272.957V355.45ZM294.861 335.276V340.298C294.469 340.298 293.966 340.298 293.35 340.298C292.735 340.298 292.064 340.298 291.336 340.298C288.819 340.298 287.112 340.912 286.217 342.14C285.378 343.368 284.958 345.182 284.958 347.581V395.967H279.168V347.581C279.168 344.568 279.671 342.14 280.678 340.298C281.685 338.401 283.028 337.034 284.706 336.196C286.441 335.359 288.343 334.941 290.413 334.941C291.084 334.941 291.812 334.969 292.595 335.025C293.434 335.08 294.19 335.164 294.861 335.276ZM298.218 355.45H319.618V360.305H298.218V355.45ZM319.953 335.276V340.298C319.562 340.298 319.058 340.298 318.443 340.298C317.883 340.298 317.24 340.298 316.513 340.298C313.939 340.298 312.205 340.912 311.31 342.14C310.47 343.368 310.051 345.182 310.051 347.581V395.967H304.26V347.581C304.26 344.568 304.764 342.14 305.771 340.298C306.834 338.401 308.204 337.034 309.883 336.196C311.561 335.359 313.436 334.941 315.506 334.941C316.233 334.941 316.988 334.969 317.771 335.025C318.555 335.08 319.282 335.164 319.953 335.276Z" fill="#3B2D4A"/>
<defs>
<linearGradient id="paint0_linear_51_1986" x1="285.396" y1="113.012" x2="302.784" y2="192.884" gradientUnits="userSpaceOnUse">
<stop stop-color="#FF003F"/>
<stop offset="1" stop-color="#B73F6F"/>
</linearGradient>
<linearGradient id="paint1_linear_51_1986" x1="274.988" y1="196.89" x2="263.5" y2="231.332" gradientUnits="userSpaceOnUse">
<stop stop-color="#D92F5F"/>
<stop offset="1" stop-color="#8F6C87"/>
</linearGradient>
<linearGradient id="paint2_linear_51_1986" x1="234.891" y1="308.968" x2="284.764" y2="265.072" gradientUnits="userSpaceOnUse">
<stop stop-color="#33A190"/>
<stop offset="1" stop-color="#8F6C83"/>
</linearGradient>
<linearGradient id="paint3_linear_51_1986" x1="149.575" y1="278.72" x2="225.786" y2="236.365" gradientUnits="userSpaceOnUse">
<stop stop-color="#00CAA6"/>
<stop offset="0.538375" stop-color="#05C6A4"/>
<stop offset="1" stop-color="#6B8088"/>
</linearGradient>
<linearGradient id="paint4_linear_51_1986" x1="108.198" y1="284.188" x2="136.635" y2="303.916" gradientUnits="userSpaceOnUse">
<stop stop-color="#02C8A1"/>
<stop offset="1" stop-color="#00CAA5"/>
</linearGradient>
<linearGradient id="paint5_linear_51_1986" x1="123.596" y1="142.983" x2="110.847" y2="186.943" gradientUnits="userSpaceOnUse">
<stop stop-color="#04C49C"/>
<stop offset="1" stop-color="#03C69F"/>
</linearGradient>
<linearGradient id="paint6_linear_51_1986" x1="146.546" y1="129.349" x2="129.049" y2="146.858" gradientUnits="userSpaceOnUse">
<stop stop-color="#04C299"/>
<stop offset="1" stop-color="#04C39B"/>
</linearGradient>
<linearGradient id="paint7_linear_51_1986" x1="186.405" y1="114.348" x2="151.304" y2="128.079" gradientUnits="userSpaceOnUse">
<stop stop-color="#05BE95"/>
<stop offset="1" stop-color="#04C299"/>
</linearGradient>
<linearGradient id="paint8_linear_51_1986" x1="242.672" y1="134.632" x2="200.803" y2="118.525" gradientUnits="userSpaceOnUse">
<stop stop-color="#06BA91"/>
<stop offset="1" stop-color="#06BC94"/>
</linearGradient>
</defs>
</svg>
