<svg width="315" height="315" viewBox="0 0 315 315" fill="none" xmlns="http://www.w3.org/2000/svg">
<path fill-rule="evenodd" clip-rule="evenodd" d="M247.449 84.7372C246.369 85.8165 246.276 87.5316 247.199 88.7474C256.501 101.002 263.37 115.204 267.087 130.635C267.402 131.943 268.529 132.887 269.86 133.081C278.26 134.304 285.324 139.543 288.955 146.743C289.506 147.834 290.59 148.583 291.812 148.583H311.194C312.913 148.583 314.283 147.141 314.158 145.426C311.73 112.229 299.012 81.8906 279.181 57.5846C278.073 56.2271 276.039 56.1468 274.8 57.3856L247.449 84.7372ZM240.838 148.583C241.767 148.583 242.595 148.015 242.997 147.177C245.926 141.075 251.297 136.322 257.876 134.131C259.475 133.599 260.536 131.984 260.112 130.354C256.662 117.088 250.727 104.825 242.833 94.0923C241.767 92.6431 239.666 92.5193 238.394 93.7913L225.254 106.932C224.209 107.977 224.086 109.623 224.919 110.844C232.042 121.275 236.833 133.424 238.543 146.542C238.693 147.701 239.67 148.583 240.838 148.583V148.583ZM220.607 116.515C219.605 114.949 217.42 114.766 216.106 116.08L206.708 125.477C205.72 126.465 205.553 128.001 206.243 129.216C209.173 134.372 211.314 140.035 212.504 146.04C212.792 147.496 214.045 148.583 215.529 148.583H228.653C230.446 148.583 231.843 147.021 231.56 145.251C229.89 134.806 226.085 125.073 220.607 116.515Z" fill="url(#paint0_linear_51_1985)"/>
<path fill-rule="evenodd" clip-rule="evenodd" d="M254.9 219.892C253.566 218.977 253.201 217.171 254.035 215.785C259.73 206.329 264.086 195.976 266.84 184.987C267.166 183.684 268.302 182.75 269.633 182.568C278.287 181.386 285.55 175.947 289.151 168.478C289.691 167.358 290.79 166.582 292.033 166.582H311.118C312.845 166.582 314.218 168.038 314.081 169.759C312.018 195.661 303.689 219.797 290.609 240.651C289.715 242.076 287.815 242.45 286.428 241.499L254.9 219.892ZM240.687 166.582C241.597 166.582 242.404 167.148 242.78 167.976C245.625 174.233 251.014 179.133 257.659 181.412C259.253 181.959 260.3 183.584 259.861 185.21C257.31 194.662 253.494 203.595 248.606 211.815C247.738 213.275 245.816 213.666 244.415 212.706L229.276 202.33C227.954 201.424 227.583 199.641 228.38 198.25C233.524 189.267 237.027 179.225 238.482 168.531C238.632 167.423 239.569 166.582 240.687 166.582V166.582ZM218.757 195.121C220.172 196.091 222.116 195.681 222.953 194.183C227.086 186.777 230.012 178.606 231.467 169.936C231.764 168.16 230.365 166.582 228.564 166.582H215.322C213.859 166.582 212.617 167.641 212.308 169.071C211.196 174.222 209.381 179.111 206.969 183.633C206.222 185.032 206.599 186.789 207.907 187.685L218.757 195.121Z" fill="url(#paint1_linear_51_1985)"/>
<path fill-rule="evenodd" clip-rule="evenodd" d="M227.745 249.538C226.805 248.225 227.075 246.408 228.327 245.389C235.047 239.921 241.129 233.699 246.444 226.852C247.436 225.575 249.251 225.265 250.585 226.179L282.084 247.766C283.477 248.721 283.81 250.638 282.792 251.985C274.541 262.898 264.901 272.702 254.137 281.135C252.81 282.174 250.892 281.878 249.911 280.508L227.745 249.538ZM224.596 239.789C223.282 240.871 221.336 240.585 220.346 239.2L209.662 224.274C208.732 222.974 208.988 221.177 210.205 220.141C214.073 216.846 217.632 213.201 220.835 209.255C221.845 208.01 223.641 207.713 224.963 208.619L240.101 218.993C241.502 219.954 241.83 221.888 240.781 223.224C235.999 229.313 230.569 234.869 224.596 239.789ZM206.512 214.446C205.215 215.577 203.24 215.301 202.238 213.902L194.503 203.094C193.582 201.808 193.824 200.035 194.996 198.974C196.557 197.561 198.039 196.062 199.433 194.484C200.474 193.306 202.229 193.038 203.525 193.926L214.444 201.41C215.86 202.38 216.179 204.342 215.083 205.663C212.467 208.816 209.599 211.754 206.512 214.446Z" fill="url(#paint2_linear_51_1985)"/>
<path fill-rule="evenodd" clip-rule="evenodd" d="M221.567 254.009C220.623 252.691 218.805 252.364 217.436 253.232C199.882 264.363 179.063 270.809 156.739 270.809C141.644 270.809 127.238 267.862 114.064 262.513C112.57 261.906 110.849 262.541 110.148 263.994L93.7617 297.969C93.0287 299.488 93.6914 301.316 95.2429 301.979C114.228 310.092 135.131 314.583 157.083 314.583C188.754 314.583 218.242 305.235 242.939 289.146C244.351 288.226 244.689 286.315 243.708 284.944L221.567 254.009ZM214.17 243.674C215.156 245.053 214.808 246.977 213.372 247.878C196.955 258.165 177.541 264.112 156.739 264.112C142.77 264.112 129.428 261.431 117.199 256.554C115.616 255.923 114.932 254.076 115.672 252.541L123.651 235.999C124.344 234.562 126.038 233.924 127.53 234.489C136.61 237.927 146.455 239.809 156.739 239.809C172.345 239.809 186.939 235.476 199.383 227.947C200.758 227.115 202.555 227.447 203.491 228.754L214.17 243.674ZM196.07 218.387C197.066 219.778 196.701 221.725 195.228 222.595C183.947 229.26 170.79 233.084 156.739 233.084C147.618 233.084 138.874 231.473 130.775 228.519C129.155 227.928 128.445 226.059 129.194 224.506L135.144 212.17C135.826 210.755 137.483 210.114 138.971 210.618C144.657 212.54 150.748 213.583 157.083 213.583C166.926 213.583 176.179 211.067 184.238 206.642C185.619 205.883 187.368 206.229 188.285 207.51L196.07 218.387Z" fill="url(#paint3_linear_51_1985)"/>
<path fill-rule="evenodd" clip-rule="evenodd" d="M66.6012 253.609C67.6032 252.607 69.1601 252.466 70.4347 253.085C73.0408 254.351 75.9771 255.063 79.0829 255.063C83.1163 255.063 86.8636 253.863 89.9734 251.806C91.1089 251.055 92.5952 250.968 93.7269 251.725C96.391 253.507 99.1348 255.178 101.952 256.734C103.372 257.518 103.959 259.271 103.254 260.733L86.8835 294.675C86.1521 296.192 84.3149 296.812 82.8308 296.017C71.2983 289.841 60.6243 282.271 51.0339 273.531C49.7859 272.394 49.7616 270.448 50.9555 269.254L66.6012 253.609ZM96.9163 223.294C95.8839 224.326 95.7692 225.941 96.4459 227.235C97.8121 229.847 98.5829 232.808 98.5829 235.946C98.5829 238.351 98.1298 240.653 97.3026 242.773C96.737 244.223 97.1 245.937 98.4029 246.788C100.456 248.129 102.559 249.402 104.707 250.603C106.186 251.429 108.04 250.811 108.775 249.286L116.745 232.761C117.445 231.311 116.872 229.572 115.478 228.766C111.312 226.355 107.377 223.59 103.712 220.513C102.491 219.487 100.68 219.53 99.5518 220.658L96.9163 223.294ZM108.573 211.637C107.354 212.856 107.408 214.854 108.741 215.947C111.712 218.382 114.871 220.595 118.193 222.561C119.663 223.431 121.541 222.817 122.283 221.279L128.242 208.925C128.93 207.498 128.385 205.788 127.044 204.945C125.447 203.941 123.905 202.859 122.421 201.705C121.182 200.741 119.409 200.801 118.299 201.911L108.573 211.637Z" fill="url(#paint4_linear_51_1985)"/>
<path fill-rule="evenodd" clip-rule="evenodd" d="M54.1419 212.303C55.5895 211.594 57.3348 212.158 58.1348 213.557C59.6649 216.234 61.3008 218.842 63.0369 221.376C63.8312 222.536 63.7285 224.078 62.9293 225.234C60.8169 228.29 59.5829 231.976 59.5829 235.946C59.5829 238.99 60.3085 241.868 61.5994 244.422C62.2499 245.709 62.1245 247.3 61.1048 248.32L45.5348 263.89C44.3456 265.079 42.4093 265.06 41.2692 263.824C32.6695 254.498 25.1819 244.131 19.017 232.934C18.2018 231.453 18.809 229.602 20.327 228.858L54.1419 212.303ZM64.2827 210.812C63.4273 209.337 64.0303 207.462 65.5616 206.712L82.0542 198.637C83.487 197.936 85.2133 198.482 86.037 199.848C88.4466 203.844 91.1855 207.619 94.216 211.136C95.2675 212.357 95.236 214.188 94.0969 215.327L91.279 218.145C90.2894 219.135 88.7564 219.286 87.4895 218.691C84.944 217.497 82.0931 216.828 79.0829 216.828C76.6189 216.828 74.2616 217.276 72.0913 218.094C70.6742 218.628 69.0173 218.27 68.1697 217.015C66.8057 214.995 65.509 212.927 64.2827 210.812ZM92.2762 197.159C91.368 195.693 91.9649 193.785 93.5137 193.027L105.89 186.967C107.297 186.278 108.991 186.793 109.852 188.102C110.835 189.597 111.888 191.042 113.005 192.434C114 193.672 113.954 195.47 112.831 196.593L103.11 206.314C101.903 207.522 99.9278 207.483 98.8261 206.179C96.4307 203.343 94.2398 200.329 92.2762 197.159Z" fill="#02C8A1"/>
<path fill-rule="evenodd" clip-rule="evenodd" d="M40.8449 166.582C42.408 166.582 43.7048 167.783 43.8686 169.338C45.0599 180.647 47.9121 191.461 52.1767 201.532C52.8096 203.026 52.1878 204.768 50.73 205.482L16.9239 222.033C15.4145 222.772 13.5898 222.128 12.9114 220.591C5.96005 204.833 1.51631 187.72 0.0858468 169.759C-0.0512517 168.037 1.32178 166.582 3.04869 166.582H40.8449ZM50.662 169.835C50.458 168.088 51.8431 166.582 53.6013 166.582H72.071C73.5988 166.582 74.8765 167.732 75.0956 169.244C76.0368 175.739 77.7346 181.988 80.0967 187.901C80.6941 189.396 80.0703 191.117 78.6242 191.825L62.1447 199.894C60.6242 200.638 58.7853 199.979 58.1332 198.417C54.3881 189.444 51.8321 179.851 50.662 169.835ZM82.0108 169.936C81.7129 168.159 83.1127 166.582 84.9136 166.582H98.8436C100.307 166.582 101.549 167.641 101.858 169.071C102.392 171.543 103.087 173.954 103.933 176.293C104.473 177.788 103.847 179.476 102.419 180.175L90.0742 186.22C88.5399 186.971 86.6834 186.293 86.0657 184.7C84.2383 179.989 82.8685 175.049 82.0108 169.936Z" fill="#02C8A1"/>
<path fill-rule="evenodd" clip-rule="evenodd" d="M58.635 94.6289C59.9707 95.5443 60.3353 97.3523 59.4985 98.7386C51.0462 112.741 45.5331 128.718 43.8136 145.813C43.6566 147.374 42.3571 148.583 40.7885 148.583H2.97229C1.25284 148.583 -0.11749 147.14 0.00798014 145.425C1.91432 119.37 10.159 95.0753 23.2067 74.0761C24.0969 72.6435 26.0029 72.2647 27.3941 73.2182L58.635 94.6289ZM64.9307 102.703C65.7997 101.245 67.7197 100.855 69.1196 101.814L84.2575 112.189C85.5813 113.096 85.9514 114.882 85.152 116.273C80.0079 125.228 76.4955 135.239 75.0209 145.902C74.8105 147.423 73.5289 148.583 71.9934 148.583H53.5388C51.7866 148.583 50.4035 147.087 50.5976 145.346C52.3195 129.897 57.3368 115.443 64.9307 102.703ZM90.5822 120.332C91.4199 118.837 93.3621 118.429 94.7761 119.398L105.954 127.059C107.252 127.948 107.634 129.684 106.909 131.08C104.496 135.726 102.71 140.75 101.662 146.04C101.373 147.496 100.121 148.583 98.637 148.583H84.824C83.0318 148.583 81.6346 147.021 81.9176 145.251C83.3442 136.329 86.3282 127.927 90.5822 120.332Z" fill="url(#paint5_linear_51_1985)"/>
<path fill-rule="evenodd" clip-rule="evenodd" d="M110.212 120.731C111.519 121.627 113.29 121.346 114.326 120.148C115.77 118.478 117.311 116.893 118.939 115.402C120.1 114.339 120.335 112.575 119.418 111.295L111.614 100.391C110.617 98.9979 108.654 98.7171 107.355 99.8341C104.149 102.592 101.176 105.613 98.4698 108.864C97.3708 110.184 97.6887 112.149 99.1057 113.12L110.212 120.731ZM103.636 94.1683C104.865 93.1343 105.128 91.3287 104.193 90.023L100.181 84.4177C99.3689 83.2825 97.8861 82.8855 96.5356 83.2389C95.1154 83.6105 93.623 83.8086 92.0834 83.8086C89.3053 83.8086 86.6808 83.1636 84.3573 82.018C83.0759 81.3862 81.4989 81.493 80.4983 82.5127C77.766 85.2975 75.185 88.2314 72.7687 91.301C71.717 92.6371 72.0442 94.5734 73.4468 95.5347L88.5858 105.91C89.9066 106.815 91.7011 106.52 92.7117 105.278C95.9967 101.24 99.6559 97.5195 103.636 94.1683ZM77.888 57.3668C78.713 56.1916 78.8472 54.6108 78.0115 53.4433L63.9957 33.8611C63.0136 32.489 61.0916 32.1943 59.7655 33.2377C48.9342 41.7608 39.2484 51.6742 30.9771 62.7089C29.9671 64.0562 30.303 65.9664 31.692 66.9183L62.9614 88.3486C64.2945 89.2622 66.1085 88.953 67.1008 87.6774C69.8104 84.1943 72.7185 80.8733 75.8082 77.7314C76.8125 76.7102 76.9638 75.1383 76.3672 73.8362C75.401 71.727 74.8634 69.3882 74.8634 66.9262C74.8634 63.3775 75.9802 60.0846 77.888 57.3668Z" fill="url(#paint6_linear_51_1985)"/>
<path fill-rule="evenodd" clip-rule="evenodd" d="M118.694 91.762C117.208 92.6263 116.835 94.5823 117.835 95.9801L125.591 106.817C126.512 108.104 128.271 108.446 129.654 107.676C134.42 105.025 139.609 103.043 145.094 101.858C146.525 101.549 147.584 100.307 147.584 98.8436V85.464C147.584 83.6649 146.01 82.2657 144.235 82.5604C135.059 84.0839 126.441 87.256 118.694 91.762ZM144.918 75.6493C146.432 75.4321 147.584 74.1534 147.584 72.624V54.1574C147.584 52.4004 146.079 51.0158 144.334 51.2176C132.463 52.5906 121.186 55.91 110.829 60.8483C109.505 61.4793 108.9 62.9923 109.118 64.442C109.24 65.2527 109.303 66.0822 109.303 66.9262C109.303 70.3396 108.27 73.5164 106.493 76.1724C105.711 77.3415 105.6 78.8857 106.419 80.0295L110.411 85.608C111.343 86.9096 113.129 87.2454 114.503 86.4248C123.645 80.966 133.932 77.2255 144.918 75.6493ZM144.825 44.4263C146.381 44.264 147.584 42.9666 147.584 41.4023V3.04869C147.584 1.32178 146.128 -0.0512385 144.407 0.0858625C117.435 2.23397 92.3773 11.177 70.9468 25.2027C69.5386 26.1243 69.2025 28.0332 70.182 29.4017L84.4378 49.3192C85.2335 50.4308 86.6751 50.8367 88.005 50.5201C89.3124 50.2088 90.6781 50.0439 92.0832 50.0439C96.534 50.0439 100.59 51.6993 103.647 54.4165C104.684 55.3386 106.172 55.6577 107.422 55.0539C118.94 49.4885 131.542 45.8119 144.825 44.4263Z" fill="url(#paint7_linear_51_1985)"/>
<path fill-rule="evenodd" clip-rule="evenodd" d="M165.583 98.6373C165.583 100.121 166.67 101.374 168.126 101.662C175.278 103.079 181.945 105.846 187.85 109.687C189.081 110.487 190.713 110.36 191.751 109.322L201.047 100.026C202.319 98.7535 202.195 96.6499 200.73 95.6037C191.463 88.985 180.642 84.4019 168.921 82.5076C167.149 82.2214 165.583 83.6191 165.583 85.4133V98.6373ZM165.583 72.5801C165.583 74.1139 166.742 75.3947 168.261 75.6069C182.322 77.5719 195.247 83.0809 206.105 91.2022C207.329 92.1177 209.046 92.0273 210.127 90.9464L223.185 77.8882C224.428 76.6452 224.343 74.6015 222.964 73.5106C207.735 61.4585 189.143 53.4697 168.825 51.1813C167.082 50.9851 165.583 52.3685 165.583 54.122V72.5801ZM165.583 41.3704C165.583 42.9378 166.791 44.2368 168.351 44.3952C190.871 46.6838 211.446 55.5565 228.118 69.0579C229.333 70.0418 231.099 69.9741 232.204 68.8686L259.465 41.6077C260.686 40.3874 260.629 38.3895 259.317 37.2687C234.569 16.1323 203.194 2.52875 168.741 0.00798014C167.027 -0.11749 165.583 1.25285 165.583 2.9723V41.3704Z" fill="url(#paint8_linear_51_1985)"/>
<path opacity="0.9" d="M294.001 27.9737L288.639 22.6113L153.672 157.578L159.035 162.94L294.001 27.9737Z" fill="#3B2D4A"/>
<circle cx="289.809" cy="24.8086" r="18" fill="#3B2D4A"/>
<circle cx="157.309" cy="157.309" r="36.5" fill="#3B2D4A"/>
<circle cx="266.161" cy="158.105" r="17.25" fill="#3B2D4A"/>
<circle cx="79.1426" cy="236.173" r="13.1912" fill="#3B2D4A"/>
<circle cx="92.1356" cy="67.1266" r="11.6488" fill="#3B2D4A"/>
<defs>
<linearGradient id="paint0_linear_51_1985" x1="271.013" y1="56.2351" x2="292.775" y2="156.049" gradientUnits="userSpaceOnUse">
<stop stop-color="#FF003F"/>
<stop offset="1" stop-color="#B73F6F"/>
</linearGradient>
<linearGradient id="paint1_linear_51_1985" x1="258" y1="161" x2="243.627" y2="204.042" gradientUnits="userSpaceOnUse">
<stop stop-color="#D92F5F"/>
<stop offset="1" stop-color="#8F6C87"/>
</linearGradient>
<linearGradient id="paint2_linear_51_1985" x1="208" y1="301" x2="270.495" y2="245.995" gradientUnits="userSpaceOnUse">
<stop stop-color="#33A190"/>
<stop offset="1" stop-color="#8F6C83"/>
</linearGradient>
<linearGradient id="paint3_linear_51_1985" x1="101.723" y1="262.791" x2="196.9" y2="209.82" gradientUnits="userSpaceOnUse">
<stop stop-color="#00CAA6"/>
<stop offset="0.538375" stop-color="#05C6A4"/>
<stop offset="1" stop-color="#6B8088"/>
</linearGradient>
<linearGradient id="paint4_linear_51_1985" x1="50.1099" y1="269.834" x2="85.7322" y2="294.582" gradientUnits="userSpaceOnUse">
<stop stop-color="#02C8A1"/>
<stop offset="1" stop-color="#00CAA5"/>
</linearGradient>
<linearGradient id="paint5_linear_51_1985" x1="69.7357" y1="93.6868" x2="53.783" y2="148.626" gradientUnits="userSpaceOnUse">
<stop stop-color="#04C49C"/>
<stop offset="1" stop-color="#03C69F"/>
</linearGradient>
<linearGradient id="paint6_linear_51_1985" x1="98.3001" y1="76.903" x2="76.374" y2="98.8406" gradientUnits="userSpaceOnUse">
<stop stop-color="#04C299"/>
<stop offset="1" stop-color="#04C39B"/>
</linearGradient>
<linearGradient id="paint7_linear_51_1985" x1="147.805" y1="58.3542" x2="103.944" y2="75.5301" gradientUnits="userSpaceOnUse">
<stop stop-color="#05BE95"/>
<stop offset="1" stop-color="#04C299"/>
</linearGradient>
<linearGradient id="paint8_linear_51_1985" x1="218.049" y1="83.6597" x2="165.746" y2="63.5178" gradientUnits="userSpaceOnUse">
<stop stop-color="#06BA91"/>
<stop offset="1" stop-color="#06BC94"/>
</linearGradient>
</defs>
</svg>
