<svg width="1393" height="469" viewBox="0 0 1393 469" fill="none" xmlns="http://www.w3.org/2000/svg">
<rect width="1393" height="469" rx="40" fill="#1B1522"/>
<path fill-rule="evenodd" clip-rule="evenodd" d="M361.449 162.737C360.369 163.817 360.276 165.532 361.199 166.748C370.501 179.002 377.37 193.204 381.087 208.635C381.402 209.943 382.529 210.887 383.86 211.081C392.26 212.304 399.324 217.543 402.955 224.743C403.506 225.834 404.59 226.584 405.812 226.584H425.194C426.913 226.584 428.283 225.141 428.158 223.426C425.73 190.229 413.012 159.891 393.181 135.585C392.073 134.227 390.039 134.147 388.8 135.386L361.449 162.737ZM354.837 226.584C355.767 226.584 356.595 226.015 356.997 225.177C359.925 219.075 365.297 214.322 371.876 212.131C373.475 211.599 374.536 209.984 374.112 208.354C370.662 195.088 364.727 182.825 356.833 172.092C355.767 170.643 353.666 170.519 352.394 171.791L339.254 184.932C338.209 185.977 338.086 187.624 338.919 188.844C346.042 199.275 350.833 211.425 352.542 224.542C352.693 225.701 353.669 226.584 354.837 226.584V226.584ZM334.607 194.515C333.605 192.949 331.42 192.766 330.106 194.08L320.708 203.478C319.72 204.466 319.553 206.001 320.243 207.216C323.173 212.372 325.314 218.035 326.504 224.04C326.792 225.496 328.045 226.584 329.529 226.584H342.653C344.446 226.584 345.843 225.021 345.56 223.251C343.89 212.806 340.085 203.073 334.607 194.515Z" fill="url(#paint0_linear_51_1153)"/>
<path fill-rule="evenodd" clip-rule="evenodd" d="M368.9 297.892C367.566 296.977 367.201 295.171 368.035 293.785C373.73 284.329 378.086 273.976 380.84 262.988C381.166 261.684 382.302 260.75 383.633 260.568C392.287 259.386 399.55 253.947 403.151 246.478C403.691 245.358 404.79 244.583 406.033 244.583H425.118C426.845 244.583 428.218 246.038 428.081 247.759C426.018 273.661 417.689 297.797 404.609 318.652C403.715 320.076 401.815 320.45 400.428 319.499L368.9 297.892ZM354.687 244.583C355.597 244.583 356.404 245.148 356.78 245.976C359.625 252.233 365.014 257.133 371.659 259.412C373.253 259.959 374.3 261.584 373.861 263.211C371.31 272.662 367.494 281.595 362.606 289.815C361.738 291.275 359.816 291.666 358.415 290.706L343.276 280.331C341.954 279.424 341.583 277.641 342.38 276.25C347.524 267.268 351.027 257.225 352.482 246.531C352.632 245.424 353.569 244.583 354.687 244.583V244.583ZM332.757 273.121C334.172 274.091 336.116 273.681 336.953 272.183C341.086 264.777 344.012 256.606 345.467 247.936C345.764 246.16 344.365 244.583 342.564 244.583H329.322C327.859 244.583 326.617 245.641 326.308 247.071C325.196 252.222 323.381 257.111 320.969 261.633C320.222 263.032 320.599 264.789 321.907 265.685L332.757 273.121Z" fill="url(#paint1_linear_51_1153)"/>
<path fill-rule="evenodd" clip-rule="evenodd" d="M341.745 327.538C340.805 326.225 341.075 324.408 342.327 323.389C349.047 317.921 355.129 311.699 360.444 304.852C361.436 303.575 363.251 303.265 364.585 304.179L396.084 325.766C397.477 326.721 397.81 328.638 396.792 329.985C388.541 340.898 378.901 350.702 368.137 359.135C366.81 360.174 364.892 359.878 363.911 358.508L341.745 327.538ZM338.596 317.789C337.282 318.871 335.336 318.585 334.346 317.2L323.662 302.274C322.732 300.974 322.988 299.177 324.205 298.141C328.073 294.846 331.632 291.201 334.835 287.255C335.845 286.01 337.641 285.713 338.963 286.619L354.101 296.993C355.502 297.954 355.83 299.888 354.781 301.224C349.999 307.313 344.569 312.869 338.596 317.789ZM320.512 292.446C319.215 293.577 317.24 293.301 316.238 291.902L308.503 281.094C307.582 279.808 307.824 278.035 308.996 276.974C310.557 275.561 312.039 274.062 313.433 272.484C314.474 271.306 316.229 271.038 317.525 271.926L328.444 279.41C329.86 280.38 330.179 282.342 329.083 283.663C326.467 286.816 323.599 289.754 320.512 292.446Z" fill="url(#paint2_linear_51_1153)"/>
<path fill-rule="evenodd" clip-rule="evenodd" d="M335.567 332.009C334.623 330.691 332.805 330.364 331.436 331.232C313.882 342.363 293.063 348.808 270.739 348.808C255.644 348.808 241.238 345.862 228.064 340.513C226.57 339.906 224.849 340.541 224.148 341.993L207.762 375.968C207.029 377.488 207.691 379.316 209.243 379.979C228.228 388.092 249.131 392.582 271.082 392.582C302.754 392.582 332.242 383.235 356.938 367.146C358.351 366.226 358.689 364.314 357.708 362.944L335.567 332.009ZM328.17 321.674C329.156 323.052 328.808 324.977 327.372 325.877C310.955 336.165 291.541 342.112 270.739 342.112C256.77 342.112 243.428 339.43 231.199 334.554C229.616 333.923 228.932 332.076 229.672 330.541L237.651 313.999C238.344 312.562 240.038 311.924 241.53 312.489C250.61 315.927 260.455 317.809 270.739 317.809C286.345 317.809 300.938 313.476 313.383 305.947C314.758 305.115 316.555 305.447 317.491 306.754L328.17 321.674ZM310.07 296.386C311.066 297.778 310.701 299.724 309.228 300.595C297.947 307.259 284.79 311.084 270.739 311.084C261.618 311.084 252.874 309.472 244.775 306.519C243.155 305.928 242.445 304.059 243.194 302.505L249.144 290.17C249.826 288.754 251.483 288.114 252.971 288.617C258.657 290.54 264.748 291.582 271.082 291.582C280.925 291.582 290.179 289.067 298.238 284.642C299.619 283.883 301.368 284.229 302.285 285.51L310.07 296.386Z" fill="url(#paint3_linear_51_1153)"/>
<path fill-rule="evenodd" clip-rule="evenodd" d="M180.601 331.609C181.603 330.607 183.16 330.466 184.435 331.085C187.041 332.351 189.977 333.063 193.083 333.063C197.116 333.063 200.864 331.863 203.973 329.806C205.109 329.055 206.595 328.968 207.727 329.725C210.391 331.507 213.135 333.178 215.952 334.734C217.372 335.518 217.959 337.271 217.254 338.733L200.884 372.675C200.152 374.192 198.315 374.812 196.831 374.017C185.298 367.841 174.624 360.271 165.034 351.531C163.786 350.394 163.762 348.448 164.956 347.254L180.601 331.609ZM210.916 301.294C209.884 302.326 209.769 303.941 210.446 305.235C211.812 307.847 212.583 310.808 212.583 313.946C212.583 316.351 212.13 318.653 211.303 320.773C210.737 322.223 211.1 323.937 212.403 324.788C214.457 326.129 216.559 327.402 218.707 328.603C220.186 329.429 222.04 328.811 222.775 327.286L230.745 310.761C231.445 309.311 230.872 307.572 229.478 306.766C225.312 304.355 221.377 301.59 217.712 298.513C216.491 297.487 214.68 297.53 213.552 298.658L210.916 301.294ZM222.573 289.637C221.354 290.856 221.408 292.854 222.741 293.947C225.712 296.382 228.871 298.595 232.193 300.561C233.663 301.431 235.541 300.817 236.283 299.279L242.242 286.925C242.93 285.498 242.385 283.788 241.044 282.945C239.447 281.941 237.905 280.859 236.421 279.705C235.182 278.741 233.409 278.801 232.299 279.911L222.573 289.637Z" fill="url(#paint4_linear_51_1153)"/>
<path fill-rule="evenodd" clip-rule="evenodd" d="M168.142 290.303C169.59 289.594 171.335 290.158 172.135 291.557C173.665 294.234 175.301 296.842 177.037 299.376C177.831 300.536 177.729 302.078 176.929 303.234C174.817 306.289 173.583 309.976 173.583 313.946C173.583 316.99 174.309 319.868 175.599 322.422C176.25 323.709 176.125 325.3 175.105 326.32L159.535 341.89C158.346 343.079 156.409 343.06 155.269 341.824C146.67 332.498 139.182 322.131 133.017 310.933C132.202 309.453 132.809 307.601 134.327 306.858L168.142 290.303ZM178.283 288.812C177.427 287.337 178.03 285.461 179.562 284.712L196.054 276.637C197.487 275.936 199.213 276.481 200.037 277.848C202.447 281.844 205.186 285.619 208.216 289.136C209.268 290.356 209.236 292.188 208.097 293.327L205.279 296.145C204.289 297.135 202.756 297.285 201.489 296.691C198.944 295.497 196.093 294.828 193.083 294.828C190.619 294.828 188.262 295.276 186.091 296.094C184.674 296.628 183.017 296.269 182.17 295.015C180.806 292.995 179.509 290.927 178.283 288.812ZM206.276 275.159C205.368 273.693 205.965 271.785 207.514 271.027L219.89 264.967C221.297 264.278 222.991 264.793 223.852 266.102C224.835 267.597 225.888 269.042 227.005 270.433C228 271.672 227.954 273.47 226.831 274.593L217.11 284.314C215.903 285.521 213.928 285.483 212.826 284.178C210.431 281.343 208.24 278.329 206.276 275.159Z" fill="#02C8A1"/>
<path fill-rule="evenodd" clip-rule="evenodd" d="M154.845 244.583C156.408 244.583 157.705 245.783 157.869 247.338C159.06 258.647 161.912 269.461 166.177 279.532C166.81 281.026 166.188 282.768 164.73 283.482L130.924 300.033C129.414 300.772 127.59 300.129 126.911 298.591C119.96 282.833 115.516 265.72 114.086 247.759C113.949 246.038 115.322 244.583 117.049 244.583H154.845ZM164.662 247.835C164.458 246.089 165.843 244.583 167.601 244.583H186.071C187.599 244.583 188.877 245.732 189.096 247.244C190.037 253.739 191.735 259.988 194.097 265.901C194.694 267.396 194.07 269.117 192.624 269.825L176.145 277.894C174.624 278.638 172.785 277.979 172.133 276.417C168.388 267.444 165.832 257.851 164.662 247.835ZM196.011 247.936C195.713 246.16 197.113 244.583 198.914 244.583H212.844C214.307 244.583 215.549 245.641 215.858 247.072C216.392 249.543 217.087 251.954 217.933 254.293C218.473 255.788 217.847 257.477 216.42 258.176L204.074 264.22C202.54 264.971 200.683 264.293 200.066 262.7C198.238 257.989 196.869 253.049 196.011 247.936Z" fill="#02C8A1"/>
<path fill-rule="evenodd" clip-rule="evenodd" d="M172.635 172.629C173.971 173.544 174.335 175.352 173.498 176.739C165.046 190.741 159.533 206.718 157.814 223.813C157.657 225.374 156.357 226.583 154.788 226.583H116.972C115.253 226.583 113.883 225.14 114.008 223.425C115.914 197.37 124.159 173.075 137.207 152.076C138.097 150.644 140.003 150.265 141.394 151.218L172.635 172.629ZM178.931 180.703C179.8 179.245 181.72 178.855 183.12 179.814L198.257 190.189C199.581 191.096 199.951 192.882 199.152 194.273C194.008 203.228 190.496 213.239 189.021 223.902C188.811 225.423 187.529 226.583 185.993 226.583H167.539C165.787 226.583 164.404 225.087 164.598 223.346C166.319 207.897 171.337 193.443 178.931 180.703ZM204.582 198.332C205.42 196.837 207.362 196.429 208.776 197.398L219.954 205.059C221.252 205.948 221.634 207.684 220.909 209.08C218.496 213.726 216.71 218.75 215.662 224.04C215.373 225.496 214.121 226.583 212.637 226.583H198.824C197.032 226.583 195.635 225.021 195.918 223.251C197.344 214.329 200.328 205.927 204.582 198.332Z" fill="url(#paint5_linear_51_1153)"/>
<path fill-rule="evenodd" clip-rule="evenodd" d="M224.212 198.731C225.519 199.627 227.29 199.346 228.326 198.148C229.771 196.478 231.311 194.893 232.939 193.402C234.1 192.339 234.335 190.575 233.418 189.295L225.614 178.391C224.617 176.998 222.654 176.717 221.355 177.834C218.149 180.592 215.176 183.613 212.47 186.864C211.371 188.184 211.689 190.149 213.106 191.12L224.212 198.731ZM217.636 172.168C218.865 171.134 219.128 169.329 218.193 168.023L214.181 162.418C213.369 161.283 211.886 160.885 210.536 161.239C209.115 161.61 207.623 161.809 206.083 161.809C203.305 161.809 200.681 161.164 198.357 160.018C197.076 159.386 195.499 159.493 194.498 160.513C191.766 163.298 189.185 166.231 186.769 169.301C185.717 170.637 186.044 172.573 187.447 173.535L202.586 183.91C203.907 184.815 205.701 184.52 206.712 183.278C209.997 179.24 213.656 175.52 217.636 172.168ZM191.888 135.367C192.713 134.192 192.847 132.611 192.012 131.443L177.996 111.861C177.014 110.489 175.092 110.194 173.766 111.238C162.934 119.761 153.248 129.674 144.977 140.709C143.967 142.056 144.303 143.966 145.692 144.918L176.962 166.349C178.295 167.262 180.109 166.953 181.101 165.677C183.81 162.194 186.719 158.873 189.808 155.731C190.813 154.71 190.964 153.138 190.367 151.836C189.401 149.727 188.863 147.388 188.863 144.926C188.863 141.378 189.98 138.085 191.888 135.367Z" fill="url(#paint6_linear_51_1153)"/>
<path fill-rule="evenodd" clip-rule="evenodd" d="M232.694 169.762C231.208 170.626 230.835 172.582 231.835 173.98L239.591 184.817C240.513 186.104 242.271 186.446 243.654 185.676C248.42 183.025 253.609 181.043 259.094 179.858C260.525 179.549 261.584 178.307 261.584 176.844V163.464C261.584 161.665 260.01 160.266 258.235 160.56C249.059 162.084 240.441 165.256 232.694 169.762ZM258.918 153.649C260.432 153.432 261.584 152.153 261.584 150.624V132.157C261.584 130.4 260.079 129.016 258.334 129.218C246.463 130.591 235.186 133.91 224.829 138.848C223.505 139.479 222.9 140.992 223.118 142.442C223.24 143.253 223.303 144.082 223.303 144.926C223.303 148.34 222.27 151.516 220.493 154.172C219.711 155.341 219.6 156.886 220.419 158.029L224.411 163.608C225.343 164.91 227.129 165.245 228.504 164.425C237.646 158.966 247.932 155.225 258.918 153.649ZM258.825 122.426C260.381 122.264 261.584 120.967 261.584 119.402V81.0487C261.584 79.3218 260.128 77.9488 258.407 78.0859C231.435 80.234 206.377 89.177 184.947 103.203C183.539 104.124 183.203 106.033 184.182 107.402L198.438 127.319C199.234 128.431 200.675 128.837 202.005 128.52C203.312 128.209 204.678 128.044 206.083 128.044C210.534 128.044 214.591 129.699 217.647 132.417C218.684 133.339 220.172 133.658 221.422 133.054C232.94 127.488 245.542 123.812 258.825 122.426Z" fill="url(#paint7_linear_51_1153)"/>
<path fill-rule="evenodd" clip-rule="evenodd" d="M279.583 176.637C279.583 178.121 280.67 179.374 282.126 179.662C289.278 181.079 295.945 183.846 301.85 187.687C303.081 188.487 304.713 188.36 305.751 187.322L315.047 178.026C316.319 176.753 316.195 174.65 314.73 173.604C305.463 166.985 294.642 162.402 282.921 160.508C281.149 160.221 279.583 161.619 279.583 163.413V176.637ZM279.583 150.58C279.583 152.114 280.742 153.395 282.261 153.607C296.322 155.572 309.247 161.081 320.105 169.202C321.329 170.118 323.046 170.027 324.126 168.946L337.185 155.888C338.428 154.645 338.343 152.602 336.964 151.511C321.735 139.459 303.143 131.47 282.825 129.181C281.082 128.985 279.583 130.368 279.583 132.122V150.58ZM279.583 119.37C279.583 120.938 280.791 122.237 282.351 122.395C304.871 124.684 325.446 133.556 342.118 147.058C343.332 148.042 345.099 147.974 346.204 146.869L373.465 119.608C374.686 118.387 374.629 116.39 373.317 115.269C348.569 94.1323 317.194 80.5288 282.741 78.008C281.027 77.8825 279.583 79.2528 279.583 80.9723V119.37Z" fill="url(#paint8_linear_51_1153)"/>
<path opacity="0.9" d="M408.001 105.974L402.639 100.611L267.672 235.578L273.035 240.94L408.001 105.974Z" fill="white"/>
<circle cx="403.809" cy="102.809" r="18" fill="white"/>
<circle cx="271.309" cy="235.309" r="36.5" fill="white"/>
<circle cx="380.161" cy="236.105" r="17.25" fill="white"/>
<circle cx="193.143" cy="314.173" r="13.1912" fill="white"/>
<circle cx="206.136" cy="145.127" r="11.6488" fill="white"/>
<path d="M496 236.466C496 223.193 498.948 211.6 504.843 201.687C510.907 191.606 519.16 183.794 529.603 178.249C540.214 172.705 552.258 169.933 565.732 169.933C579.207 169.933 591.166 172.705 601.609 178.249C612.052 183.794 620.221 191.606 626.117 201.687C632.18 211.6 635.212 223.193 635.212 236.466C635.212 249.739 632.18 261.332 626.117 271.245C620.221 281.158 612.052 288.887 601.609 294.431C591.166 299.976 579.207 302.748 565.732 302.748C552.258 302.748 540.214 299.976 529.603 294.431C519.16 288.887 510.907 281.158 504.843 271.245C498.948 261.332 496 249.739 496 236.466ZM535.161 236.214C535.161 242.599 536.425 248.227 538.951 253.1C541.646 257.804 545.267 261.5 549.815 264.189C554.363 266.709 559.669 267.969 565.732 267.969C571.796 267.969 577.102 266.709 581.65 264.189C586.197 261.5 589.735 257.804 592.261 253.1C594.788 248.227 596.051 242.599 596.051 236.214C596.051 229.83 594.788 224.285 592.261 219.581C589.735 214.876 586.197 211.264 581.65 208.744C577.102 206.056 571.796 204.712 565.732 204.712C559.669 204.712 554.363 206.056 549.815 208.744C545.267 211.264 541.646 214.876 538.951 219.581C536.425 224.285 535.161 229.83 535.161 236.214ZM695.92 303C682.613 303 672.002 299.388 664.085 292.163C656.337 284.77 652.463 274.942 652.463 262.677C652.463 251.084 656.421 241.843 664.338 234.954C672.423 228.066 684.045 224.033 699.204 222.857L734.576 220.085V218.069C734.576 213.868 733.734 210.424 732.049 207.736C730.365 204.88 727.923 202.779 724.722 201.435C721.69 199.923 717.816 199.167 713.1 199.167C704.847 199.167 698.53 200.679 694.151 203.704C689.94 206.728 687.835 211.096 687.835 216.809H655.495C655.495 207.232 657.937 198.915 662.822 191.859C667.707 184.802 674.613 179.341 683.54 175.477C692.635 171.613 703.162 169.681 715.121 169.681C727.417 169.681 737.776 171.865 746.198 176.233C754.788 180.602 761.273 186.986 765.652 195.387C770.2 203.788 772.474 214.036 772.474 226.133V299.724H738.113L735.586 283.09C733.565 288.803 728.765 293.591 721.185 297.456C713.774 301.152 705.352 303 695.92 303ZM709.563 274.27C716.974 274.27 723.038 272.505 727.754 268.977C732.47 265.281 734.828 259.82 734.828 252.596V245.791L715.121 247.555C706.7 248.227 700.72 249.655 697.183 251.84C693.814 253.856 692.13 256.88 692.13 260.912C692.13 265.449 693.562 268.809 696.425 270.993C699.288 273.177 703.668 274.27 709.563 274.27ZM791.285 259.904H828.173C828.51 264.273 830.278 267.717 833.478 270.237C836.679 272.757 841.227 274.018 847.122 274.018C853.185 274.018 857.649 273.009 860.512 270.993C863.376 268.977 864.808 266.373 864.808 263.181C864.808 261.332 864.05 259.484 862.534 257.636C861.186 255.788 858.154 254.36 853.438 253.352L830.194 248.311C818.572 245.791 809.897 241.759 804.171 236.214C798.444 230.502 795.58 222.101 795.58 211.012C795.58 202.275 797.854 194.883 802.402 188.834C807.118 182.618 813.435 177.913 821.351 174.721C829.268 171.361 838.279 169.681 848.385 169.681C858.154 169.681 866.745 171.445 874.156 174.973C881.735 178.501 887.631 183.458 891.841 189.842C896.052 196.227 898.158 203.704 898.158 212.272H861.27C861.27 207.904 860.007 204.46 857.481 201.939C854.954 199.251 851.333 197.907 846.616 197.907C842.237 197.907 838.7 198.999 836.005 201.183C833.479 203.199 832.215 205.888 832.215 209.248C832.215 214.624 836.763 218.321 845.859 220.337L869.355 225.377C879.798 227.562 887.715 231.342 893.105 236.718C898.663 241.927 901.442 249.571 901.442 259.652C901.442 268.557 899.084 276.286 894.368 282.838C889.652 289.391 883.083 294.431 874.661 297.96C866.239 301.32 856.554 303 845.606 303C828.931 303 815.709 299.052 805.939 291.155C796.17 283.09 791.285 272.673 791.285 259.904ZM973.314 302.748C961.523 302.748 951.417 299.976 942.995 294.431C934.573 288.887 928.089 281.326 923.541 271.749C918.993 262.005 916.719 251.084 916.719 238.987C916.719 226.721 918.993 215.717 923.541 205.972C928.089 196.227 934.573 188.582 942.995 183.038C951.585 177.325 961.944 174.469 974.072 174.469C984.178 174.469 993.105 176.653 1000.85 181.022C1008.77 185.39 1014.83 192.027 1019.04 200.931V116H1036.48V299.724H1021.32L1019.55 274.774C1015.17 284.182 1008.94 291.239 1000.85 295.943C992.768 300.48 983.588 302.748 973.314 302.748ZM976.346 286.871C985.441 286.871 993.105 284.854 999.337 280.822C1005.57 276.622 1010.37 270.909 1013.74 263.685C1017.11 256.292 1018.79 247.891 1018.79 238.482C1018.79 229.074 1017.11 220.757 1013.74 213.532C1010.37 206.308 1005.57 200.595 999.337 196.395C993.105 192.195 985.441 190.094 976.346 190.094C967.587 190.094 960.007 192.195 953.607 196.395C947.375 200.595 942.574 206.308 939.205 213.532C936.005 220.757 934.405 229.074 934.405 238.482C934.405 247.891 936.005 256.292 939.205 263.685C942.574 270.909 947.375 276.622 953.607 280.822C960.007 284.854 967.587 286.871 976.346 286.871ZM1072.86 299.724V177.745H1090.29V299.724H1072.86ZM1081.45 144.226C1077.91 144.226 1074.88 142.966 1072.35 140.446C1069.82 137.926 1068.56 134.902 1068.56 131.373C1068.56 127.845 1069.82 124.821 1072.35 122.301C1074.88 119.612 1077.91 118.268 1081.45 118.268C1084.98 118.268 1088.01 119.612 1090.54 122.301C1093.24 124.821 1094.58 127.845 1094.58 131.373C1094.58 134.902 1093.24 137.926 1090.54 140.446C1088.01 142.966 1084.98 144.226 1081.45 144.226ZM1113 177.745H1193.85V192.363H1113V177.745ZM1178.94 117.008V132.129C1177.76 132.129 1176.25 132.129 1174.4 132.129C1172.54 132.129 1170.52 132.129 1168.33 132.129C1160.75 132.129 1155.61 133.978 1152.92 137.674C1150.39 141.37 1149.13 146.831 1149.13 154.055V299.724H1131.7V154.055C1131.7 144.982 1133.21 137.674 1136.24 132.129C1139.28 126.417 1143.32 122.301 1148.37 119.78C1153.59 117.26 1159.32 116 1165.55 116C1167.57 116 1169.76 116.084 1172.12 116.252C1174.65 116.42 1176.92 116.672 1178.94 117.008ZM1189.05 177.745H1253.48V192.363H1189.05V177.745ZM1254.49 117.008V132.129C1253.31 132.129 1251.79 132.129 1249.94 132.129C1248.25 132.129 1246.32 132.129 1244.13 132.129C1236.38 132.129 1231.16 133.978 1228.46 137.674C1225.94 141.37 1224.67 146.831 1224.67 154.055V299.724H1207.24V154.055C1207.24 144.982 1208.76 137.674 1211.79 132.129C1214.99 126.417 1219.11 122.301 1224.17 119.78C1229.22 117.26 1234.86 116 1241.1 116C1243.29 116 1245.56 116.084 1247.92 116.252C1250.28 116.42 1252.47 116.672 1254.49 117.008Z" fill="white"/>
<rect x="3" y="3" width="1387" height="463" rx="37" stroke="#EDDEFF" stroke-opacity="0.28" stroke-width="6" style="mix-blend-mode:hard-light"/>
<defs>
<linearGradient id="paint0_linear_51_1153" x1="385.013" y1="134.235" x2="406.775" y2="234.049" gradientUnits="userSpaceOnUse">
<stop stop-color="#FF003F"/>
<stop offset="1" stop-color="#B73F6F"/>
</linearGradient>
<linearGradient id="paint1_linear_51_1153" x1="372" y1="239" x2="357.627" y2="282.043" gradientUnits="userSpaceOnUse">
<stop stop-color="#D92F5F"/>
<stop offset="1" stop-color="#8F6C87"/>
</linearGradient>
<linearGradient id="paint2_linear_51_1153" x1="322" y1="379" x2="384.495" y2="323.995" gradientUnits="userSpaceOnUse">
<stop stop-color="#33A190"/>
<stop offset="1" stop-color="#8F6C83"/>
</linearGradient>
<linearGradient id="paint3_linear_51_1153" x1="215.723" y1="340.791" x2="310.9" y2="287.82" gradientUnits="userSpaceOnUse">
<stop stop-color="#00CAA6"/>
<stop offset="0.538375" stop-color="#05C6A4"/>
<stop offset="1" stop-color="#6B8088"/>
</linearGradient>
<linearGradient id="paint4_linear_51_1153" x1="164.11" y1="347.834" x2="199.732" y2="372.582" gradientUnits="userSpaceOnUse">
<stop stop-color="#02C8A1"/>
<stop offset="1" stop-color="#00CAA5"/>
</linearGradient>
<linearGradient id="paint5_linear_51_1153" x1="183.736" y1="171.687" x2="167.783" y2="226.626" gradientUnits="userSpaceOnUse">
<stop stop-color="#04C49C"/>
<stop offset="1" stop-color="#03C69F"/>
</linearGradient>
<linearGradient id="paint6_linear_51_1153" x1="212.3" y1="154.903" x2="190.374" y2="176.841" gradientUnits="userSpaceOnUse">
<stop stop-color="#04C299"/>
<stop offset="1" stop-color="#04C39B"/>
</linearGradient>
<linearGradient id="paint7_linear_51_1153" x1="261.805" y1="136.354" x2="217.944" y2="153.53" gradientUnits="userSpaceOnUse">
<stop stop-color="#05BE95"/>
<stop offset="1" stop-color="#04C299"/>
</linearGradient>
<linearGradient id="paint8_linear_51_1153" x1="332.049" y1="161.66" x2="279.746" y2="141.518" gradientUnits="userSpaceOnUse">
<stop stop-color="#06BA91"/>
<stop offset="1" stop-color="#06BC94"/>
</linearGradient>
</defs>
</svg>
